<?xml version="1.0" encoding="utf-8"?>
<!-- Generator: Adobe Illustrator 18.1.1, SVG Export Plug-In . SVG Version: 6.00 Build 0)  -->
<svg version="1.1" id="图层_1" xmlns="http://www.w3.org/2000/svg" xmlns:xlink="http://www.w3.org/1999/xlink" x="0px" y="0px"
	 viewBox="0 0 109 40.2" enable-background="new 0 0 109 40.2" xml:space="preserve">
<g>
	<g>
		<path fill="#E4E4E3" d="M108.9,40.2c0.1-0.6,0.1-1.2,0.1-1.8c0-8.9-7.2-16.1-16.1-16.1c-8.9,0-16.1,7.2-16.1,16.1
			c0,0.6,0,1.2,0.1,1.8H108.9z"/>
		<path fill="#E4E4E3" d="M52.7,40.2h26.8c5.4-4.1,8.9-10.6,8.9-17.9C88.5,10,78.4,0,66.1,0S43.7,10,43.7,22.4
			C43.7,29.7,47.3,36.1,52.7,40.2z"/>
		<path fill="#E4E4E3" d="M60.9,40.2c0.4-1.6,0.7-3.3,0.7-5c0-10.5-8.5-19.1-19.1-19.1s-19.1,8.5-19.1,19.1c0,1.7,0.2,3.4,0.7,5
			H60.9z"/>
		<path fill="#E4E4E3" d="M21.2,26.3c-7.7,0-14,6.3-14,14h27.9C35.1,32.5,28.9,26.3,21.2,26.3z"/>
	</g>
	<g>
		<path fill="#FFFFFF" d="M101.7,40.2c0.1-0.6,0.1-1.2,0.1-1.8c0-8.9-7.2-16.1-16.1-16.1c-8.9,0-16.1,7.2-16.1,16.1
			c0,0.6,0,1.2,0.1,1.8H101.7z"/>
		<path fill="#FFFFFF" d="M45.5,40.2h26.8c5.4-4.1,8.9-10.6,8.9-17.9C81.2,10,71.2,0,58.9,0S36.5,10,36.5,22.4
			C36.5,29.7,40,36.1,45.5,40.2z"/>
		<path fill="#FFFFFF" d="M53.7,40.2c0.4-1.6,0.7-3.3,0.7-5c0-10.5-8.5-19.1-19.1-19.1c-10.5,0-19.1,8.5-19.1,19.1
			c0,1.7,0.2,3.4,0.7,5H53.7z"/>
		<path fill="#FFFFFF" d="M14,26.3c-7.7,0-14,6.3-14,14h27.9C27.9,32.5,21.7,26.3,14,26.3z"/>
	</g>
</g>
</svg>
