<?xml version="1.0" encoding="utf-8"?>
<!-- Generator: Adobe Illustrator 18.1.1, SVG Export Plug-In . SVG Version: 6.00 Build 0)  -->
<svg version="1.1" id="图层_1" xmlns="http://www.w3.org/2000/svg" xmlns:xlink="http://www.w3.org/1999/xlink" x="0px" y="0px"
	 viewBox="0 0 318.4 156.4" enable-background="new 0 0 318.4 156.4" xml:space="preserve">
<g>
	<g>
		<path fill="#FFFFFF" d="M294.1,16.4c-14.4,0-25.9-6.2-26.3-13.7l-2.4,1.7c-0.4,7.5-10.1,12.2-24.5,12.2c-14.4,0-26.2-7.6-26.6-15
			l-1.9,2.9C212,11.8,200.5,18,184.6,16c-14.2-1.8-23.2-7.4-23.6-14.8l-1.6,3.2c-0.4,7.5-6.7,11.9-21.1,11.9
			c-14.4,0-30-7.6-30.4-15.1l-1.5,3.2c-0.4,7.5-9.3,12-23.7,12c-14.4,0-27.6-7.4-28-14.8l-1.3,2.8C53,11.8,43.1,16.1,28.7,16.1
			S0.9,7.5,0.5,0l0,4.4v152h317.9V4.4h0C318,11.8,308.4,16.4,294.1,16.4z"/>
	</g>
	<g>
		<path fill="#ABD1D6" d="M291.5,17.8c-14.4,0-26.1-6-26.5-13.4h0c-0.4,7.5-12.1,13.4-26.5,13.4c-14.4,0-26.1-6-26.5-13.4h0
			c-0.4,7.5-12.1,13.4-26.5,13.4c-14.4,0-26.1-6-26.5-13.4h0c-0.4,7.5-12.1,13.4-26.5,13.4c-14.4,0-26.1-6-26.5-13.4h0
			c-0.4,7.5-12.1,13.4-26.5,13.4c-14.4,0-26.1-6-26.5-13.4h0c-0.4,7.5-12.1,13.4-26.5,13.4S0.4,11.8,0,4.4h0v152h317.9V4.4h0
			C317.5,11.8,305.8,17.8,291.5,17.8z"/>
	</g>
	<path fill="#FFFFFF" d="M37.7,40.5c0,0,1.9,0.2,3.9-6.7c0,0,10.5,7.7,19.2-1.1c0,0,8.3,8.2,13.4,6.4c0,0-11.8,1.5-12.7-4.1
		c0,0-11.7,11.1-18.9,1.8C42.6,36.8,41.8,41.3,37.7,40.5z"/>
	<path fill="#FFFFFF" d="M138.2,31.1c0,0,1.9,0.2,3.9-6.7c0,0,10.5,7.7,19.2-1.1c0,0,8.3,8.2,13.4,6.4c0,0-11.8,1.5-12.7-4.1
		c0,0-11.7,11.1-18.9,1.8C143.1,27.3,142.3,31.9,138.2,31.1z"/>
	<path fill="#D5E8EA" d="M190.6,34c0,0,1.4,0.2,2.9-5c0,0,7.9,5.7,14.3-0.9c0,0,6.2,6.1,10,4.8c0,0-8.8,1.1-9.4-3
		c0,0-8.7,8.3-14.1,1.3C194.2,31.3,193.6,34.6,190.6,34z"/>
	<path fill="#D5E8EA" d="M92.1,50.2c0,0,1.3,0.2,2.5-4.4c0,0,6.9,5,12.5-0.7c0,0,5.4,5.3,8.7,4.2c0,0-7.7,1-8.2-2.6
		c0,0-7.6,7.2-12.3,1.1C95.2,47.8,94.7,50.7,92.1,50.2z"/>
</g>
</svg>
