<?xml version="1.0" encoding="utf-8"?>
<!-- Generator: Adobe Illustrator 18.1.1, SVG Export Plug-In . SVG Version: 6.00 Build 0)  -->
<svg version="1.1" id="图层_1" xmlns="http://www.w3.org/2000/svg" xmlns:xlink="http://www.w3.org/1999/xlink" x="0px" y="0px"
	 viewBox="0 0 551.3 245.7" enable-background="new 0 0 551.3 245.7" xml:space="preserve">
<g>
	<path fill="#FFFFFF" d="M551.3,24l-51.7,221.8H0V6.9L0.1,0c0.6,11.7,19.8,22.1,42.5,22.1s41.8-4,42.4-15.7l4.6-1.5
		c0.6,11.7,16.2,18,38.8,18c22.6,0,39.3,3.9,39.4-14.8l4.3-3.7c0.6,11.7,15.8,18.2,38.4,18.2c22.6,0,40-2.7,40.6-14.5l3.7-3.2
		c5.2,10.3,8.6,14.8,31,17.5c25,3.1,48-2.6,48.6-14.3l3.7-2.4c8.2,12,20.3,16.1,42.9,16.1c22.6,0,36.4-2,37-13.7l4.9-3.9
		c0.6,11.7,18.7,18.5,41.3,18.5s36.5-3,37.1-14.7l6.6-4.7C507.7,3.4,509.1,20.3,551.3,24"/>
</g>
<g>
	<path fill="#79A8B1" d="M459.2,24.3c-22.6,0-41-7.2-41.6-16.2h0c-0.6,9-19,16.2-41.6,16.2c-22.6,0-41-7.2-41.6-16.2h0
		c-0.6,9-19,16.2-41.6,16.2c-22.6,0-41-7.2-41.6-16.2h0c-0.6,9-19,16.2-41.6,16.2c-22.6,0-41-7.2-41.6-16.2h0
		c-0.6,9-19,16.2-41.6,16.2c-22.6,0-41-7.2-41.6-16.2h0c-0.6,9-19,16.2-41.6,16.2c-22.6,0-41-7.2-41.6-16.2h0v183.6h499.7V8.1h0
		C500.2,17.1,481.8,24.3,459.2,24.3z"/>
</g>
</svg>
