<?xml version="1.0" encoding="utf-8"?>
<!-- Generator: Adobe Illustrator 18.1.1, SVG Export Plug-In . SVG Version: 6.00 Build 0)  -->
<svg version="1.1" id="图层_1" xmlns="http://www.w3.org/2000/svg" xmlns:xlink="http://www.w3.org/1999/xlink" x="0px" y="0px"
	 viewBox="0 0 527.7 220.1" enable-background="new 0 0 527.7 220.1" xml:space="preserve">
<g>
	<polygon fill="#D1E7E9" points="146.6,85.4 249.8,51.6 312.8,220.1 	"/>
	<polygon fill="#91BCC1" points="135.4,88.2 249.8,51.6 167.7,111.8 	"/>
	<polygon fill="#C0DADD" points="212,138.5 167.7,111.8 249.8,51.6 	"/>
</g>
<g>
	<polygon fill="#D1E7E9" points="7.1,89.6 68.5,0 221.1,95.5 	"/>
	<polygon fill="#91BCC1" points="0,98.7 68.5,0 40,97.7 	"/>
	<polygon fill="#C0DADD" points="91.4,91.9 40,97.7 68.5,0 	"/>
</g>
<polyline fill="#D1E7E9" points="276,93.8 342.5,15.5 396.3,96 276,96.4 "/>
<polygon fill="#91BCC1" points="388.2,98.7 446.3,97.7 342.5,15.5 "/>
<polygon fill="#D0E6E9" points="411.8,72.4 489.1,46.5 467.7,72.7 "/>
<polygon fill="#91BCC1" points="527.7,73.1 479.5,94.3 471.9,72.8 "/>
</svg>
