<?xml version="1.0" encoding="utf-8"?>
<!-- Generator: Adobe Illustrator 18.1.1, SVG Export Plug-In . SVG Version: 6.00 Build 0)  -->
<svg version="1.1" id="图层_1" xmlns="http://www.w3.org/2000/svg" xmlns:xlink="http://www.w3.org/1999/xlink" x="0px" y="0px"
	 viewBox="0 0 91.9 154.8" enable-background="new 0 0 91.9 154.8" xml:space="preserve">
<g>
	
		<rect x="58.4" y="2.6" transform="matrix(0.9155 0.4022 -0.4022 0.9155 19.7929 -24.8532)" fill="#B9AAC0" width="21.4" height="64.2"/>
	<ellipse transform="matrix(0.9155 0.4022 -0.4022 0.9155 9.0559 -32.5358)" fill="#D3D3D3" cx="82" cy="5.3" rx="10.7" ry="3.4"/>
	
		<ellipse transform="matrix(0.9155 0.4023 -0.4023 0.9155 30.5338 -17.1737)" fill="#B9AAC0" cx="56.2" cy="64.1" rx="22.9" ry="14.1"/>
	<path fill="#B9AAC0" d="M42.1,152.9c-0.7,1.6-2.6,2.3-4.2,1.6L1.9,138.6c-1.6-0.7-2.3-2.6-1.6-4.2l34.2-77.8
		c0.7-1.6,2.6-2.3,4.2-1.6l36.1,15.8c1.6,0.7,2.3,2.6,1.6,4.2L42.1,152.9z"/>
	<path fill="#FFFFFF" d="M57.8,47.7c-0.3,0.8-1.3,1.1-2,0.8l0,0c-0.8-0.3-1.1-1.3-0.8-2L71.3,9.4c0.3-0.8,1.3-1.1,2-0.8l0,0
		c0.8,0.3,1.1,1.3,0.8,2L57.8,47.7z"/>
	<path fill="#FFFFFF" d="M42.6,62.2c9.3,7.2,21.8,7,19.8,7.7c-2.1,0.8-15.8-3.2-19.5-6.3c-3.7-3.1-7.4-7.2-6.1-8.7
		C38.1,53.3,33.7,55.2,42.6,62.2z"/>
</g>
</svg>
