<?xml version="1.0" encoding="utf-8"?>
<!-- Generator: Adobe Illustrator 18.1.1, SVG Export Plug-In . SVG Version: 6.00 Build 0)  -->
<svg version="1.1" id="图层_1" xmlns="http://www.w3.org/2000/svg" xmlns:xlink="http://www.w3.org/1999/xlink" x="0px" y="0px"
	 viewBox="0 0 535 345.8" enable-background="new 0 0 535 345.8" xml:space="preserve">
<path fill="#75A740" d="M465.6,201.7c57.8,68.5,193.9,144.1-209,144.1c-363.6,0-256.4-57.6-182.5-151.4
	c59.1-74.9,97.4-92.7,198.2-92.7C379.8,101.7,410.8,136.8,465.6,201.7z"/>
<path fill="#618A34" d="M387.7,131.6c0,10.4-61.5,16.4-125.6,16.4c-64,0-120.3-5.3-120.3-15.7c0-10.4,43.7-30.6,130.5-30.6
	C350.1,101.7,387.7,121.1,387.7,131.6z"/>
<path fill="#CCB630" d="M359.8,124.7c0,5.4-4.4,9.9-9.9,9.9h-17.1c-5.4,0-9.9-4.4-9.9-9.9V49.2c0-5.4,4.4-9.9,9.9-9.9h17.1
	c5.4,0,9.9,4.4,9.9,9.9V124.7z"/>
<rect x="333.5" y="7.4" fill="#CCB630" width="15.8" height="41.4"/>
<path fill="#FFFFFF" d="M354.7,54.6c-2.9,2.8-2.4-2.4-5.3-5.3c-2.9-2.9-8.1-2.4-5.3-5.3c2.9-2.9,7.5-2.8,10.4,0.1
	C357.5,47.1,357.6,51.8,354.7,54.6z"/>
<ellipse fill="#933569" cx="341.4" cy="2.4" rx="7.9" ry="2.4"/>
<path fill="#C0A72A" d="M328.3,125.1l8-0.2l3.6-1.4l4.9-4.2c2.5-4.2,5.2-5.8,6.8-10.8c5.2-15.9,5.5-34.1,5.5-34.1h-14.7
	C342.4,74.3,341,111,328.3,125.1z"/>
<polygon fill="#628B33" points="137.7,148 118.1,164.3 118.1,185.1 127,193.2 136.2,184.2 150.1,154.8 "/>
<polygon fill="#628B33" points="59.3,228.5 78.5,208.9 97.4,218.7 "/>
<polygon fill="#628B33" points="198.9,177 151.1,205.1 180.6,232.6 162.8,207.1 "/>
<polygon fill="#628B33" points="307.4,206.2 350.1,184.2 376.9,205.1 352.1,193.2 "/>
<polygon fill="#628B33" points="247,148 256.7,177 222.6,195.2 245.6,177 "/>
<polygon fill="#628B33" points="387.7,148 381.1,168 420.2,198.1 429.1,219.9 456.9,219.9 437.4,207.5 429.8,177 394.3,138.1 "/>
</svg>
